<svg id="Layer_1" data-name="Layer 1" xmlns="http://www.w3.org/2000/svg" viewBox="0 0 826.22 374.96"><defs><style>.cls-1{fill:#111;}.cls-2{fill:#1f8c0c;}.cls-3{fill:#bdff97;stroke:#bdff97;stroke-miterlimit:10;stroke-width:4px;}</style></defs><rect class="cls-1" x="10" y="10" width="806.22" height="354.96" rx="68.17"/><path class="cls-2" d="M748.05,375H78.17A78.26,78.26,0,0,1,0,296.79V78.17A78.26,78.26,0,0,1,78.17,0H748.05a78.26,78.26,0,0,1,78.17,78.17V296.79A78.26,78.26,0,0,1,748.05,375ZM78.17,20A58.23,58.23,0,0,0,20,78.17V296.79A58.24,58.24,0,0,0,78.17,355H748.05a58.24,58.24,0,0,0,58.17-58.17V78.17A58.24,58.24,0,0,0,748.05,20Z"/><path class="cls-3" d="M159.2,193q23.12,13.08,23.13,38.22t-15.09,40.22q-14.1,14.1-39.22,14.09-24.14,0-37.21-13.08-16.11-16.08-16.1-38.22V224.19H97.85v9.05q0,16.09,8,24.14t20.12,8q16.06,0,24.13-8,9.06-9.06,9.06-23.14,0-15.08-14.08-24.13a497.24,497.24,0,0,1-47.27-34.2q-16.11-13-17.1-35.2T95.83,103.5Q110.92,89.43,129,89.42q22.11,0,34.2,12.07,15.09,15.09,14.08,42.24H154.17q2-17.08-8-27.16a24.28,24.28,0,0,0-34.19,0q-9.06,9.06-9.05,21.12,0,13.09,14.07,25.15A275.41,275.41,0,0,0,159.2,193Z"/><path class="cls-3" d="M203.35,91.34h22.8V233.07q0,15.87,6.94,22.8t20.81,6.93h1q12.87,0,19.83-6.93,7.92-7.92,7.93-22.8V91.34h22.79V233.07q0,25.79-14.86,40.64-10.92,10.92-35.69,10.9h-1q-24.78,0-35.68-10.9-14.86-14.86-14.87-40.64Z"/><path class="cls-3" d="M416.45,103.23a48.68,48.68,0,0,1,14.87,35.68q0,18.84-10.9,29.74-8.93,8.91-14.87,10.9a78.21,78.21,0,0,1,17.84,12.88q12.87,12.9,12.88,35.68,0,24.79-12.88,37.67-18.84,18.84-43.61,18.83H330.22V91.34h51.54Q404.54,91.34,416.45,103.23Zm-14.87,57.49a29.65,29.65,0,0,0,8.92-21.81q0-12.87-6.93-19.82-8.93-8.93-17.85-8.92H353v58.48h29.73A25.73,25.73,0,0,0,401.58,160.72ZM353,187.48v78.3h22.79a39.18,39.18,0,0,0,28.75-11.9q9.88-9.88,9.91-25.77,0-17.84-10.9-28.74-11.9-11.9-23.79-11.89Z"/><path class="cls-3" d="M474.93,139.9V284.61H455.1V91.34h31.72l20.81,125.87h2L530.43,91.34h31.72V284.61H542.32V139.9h-2L516.56,284.61H500.7L476.91,139.9Z"/><path class="cls-3" d="M616.45,262.8h10.91v21.81h-44.6V262.8h10.9V113.14h-10.9V91.34h44.6v21.8H616.45Z"/><path class="cls-3" d="M688.07,284.61V110.17H649.41V91.34H751.5v18.83H710.87V284.61Z"/></svg>