<svg id="Layer_1" data-name="Layer 1" xmlns="http://www.w3.org/2000/svg" viewBox="0 0 1000 500"><defs><style>.cls-1{fill:#111;stroke:#1f8c0c;stroke-width:20px;}.cls-1,.cls-2{stroke-miterlimit:10;}.cls-2{fill:#bdff97;stroke:#bdff97;stroke-width:4px;}</style></defs><rect class="cls-1" x="107.23" y="66.45" width="806.22" height="354.96" rx="68.17"/><path class="cls-2" d="M256.43,249.46q23.11,13.08,23.13,38.22t-15.09,40.23Q250.37,342,225.25,342q-24.13,0-37.21-13.08Q171.93,312.84,172,290.7V280.64h23.13v9.05q0,16.1,8,24.14t20.12,8q16.06,0,24.13-8,9.06-9.06,9.06-23.13,0-15.09-14.08-24.14a498.93,498.93,0,0,1-47.27-34.19Q179,219.31,178,197.17T193.07,160q15.08-14.07,33.18-14.08,22.11,0,34.2,12.07,15.09,15.09,14.08,42.24H251.4q2-17.09-8.05-27.15a24.28,24.28,0,0,0-34.19,0q-9.06,9-9,21.12,0,13.08,14.08,25.14A274.18,274.18,0,0,0,256.43,249.46Z"/><path class="cls-2" d="M300.59,147.79h22.79V289.52q0,15.87,6.94,22.8t20.81,6.94h1q12.87,0,19.83-6.94,7.92-7.92,7.93-22.8V147.79h22.79V289.52q0,25.78-14.86,40.64-10.92,10.92-35.69,10.9h-1q-24.78,0-35.68-10.9-14.86-14.87-14.86-40.64Z"/><path class="cls-2" d="M513.68,159.68a48.7,48.7,0,0,1,14.87,35.69q0,18.84-10.9,29.73Q508.73,234,502.78,236a78.23,78.23,0,0,1,17.84,12.89q12.87,12.89,12.88,35.68,0,24.78-12.88,37.66Q501.78,341.07,477,341.06H427.45V147.79H479Q501.78,147.79,513.68,159.68Zm-14.87,57.49a29.64,29.64,0,0,0,8.92-21.8q0-12.87-6.93-19.83-8.93-8.91-17.84-8.92H450.25V225.1H480A25.69,25.69,0,0,0,498.81,217.17Zm-48.56,26.76v78.3H473a39.17,39.17,0,0,0,28.75-11.89q9.88-9.9,9.91-25.77,0-17.85-10.9-28.74-11.9-11.9-23.79-11.9Z"/><path class="cls-2" d="M572.16,196.36v144.7H552.33V147.79h31.72l20.82,125.88h2l20.81-125.88h31.72V341.06H639.56V196.36h-2l-23.78,144.7H597.93l-23.79-144.7Z"/><path class="cls-2" d="M713.68,319.26h10.91v21.8H680v-21.8h10.9V169.6H680V147.79h44.6V169.6H713.68Z"/><path class="cls-2" d="M785.3,341.06V166.62H746.65V147.79H848.73v18.83H808.1V341.06Z"/></svg>