<svg id="Layer_1" data-name="Layer 1" xmlns="http://www.w3.org/2000/svg" viewBox="0 0 500 500"><defs><style>.cls-1{fill:#78ef7b;stroke:#474747;stroke-width:20px;}.cls-1,.cls-2{stroke-miterlimit:10;}.cls-2{fill:#fff;stroke:#000;stroke-width:10px;}</style></defs><circle class="cls-1" cx="250" cy="250" r="200"/><path class="cls-2" d="M347.84,216.65H283.35V152.16A13.17,13.17,0,0,0,270.18,139H229.82a13.17,13.17,0,0,0-13.17,13.18v64.49H152.16A13.17,13.17,0,0,0,139,229.82v40.36a13.17,13.17,0,0,0,13.18,13.17h64.49v64.49A13.17,13.17,0,0,0,229.82,361h40.36a13.17,13.17,0,0,0,13.17-13.18V283.35h64.49A13.17,13.17,0,0,0,361,270.18V229.82A13.17,13.17,0,0,0,347.84,216.65Z"/></svg>